<?xml version="1.0" standalone="no"?><!DOCTYPE svg PUBLIC "-//W3C//DTD SVG 1.1//EN" "http://www.w3.org/Graphics/SVG/1.1/DTD/svg11.dtd"><svg class="icon" width="200px" height="200.00px" viewBox="0 0 1024 1024" version="1.1" xmlns="http://www.w3.org/2000/svg"><path d="M192 448h640v448H192z" fill="#D9FAFF" /><path d="M832 928H192a32 32 0 0 1-32-32V448a32 32 0 0 1 32-32h640a32 32 0 0 1 32 32v448a32 32 0 0 1-32 32zM224 864h576V480H224v384z" fill="#40D1E7" /><path d="M736 448h-64v-128c0-88.224-71.776-160-160-160s-160 71.776-160 160v128H288v-128c0-123.52 100.48-224 224-224 123.488 0 224 100.48 224 224v128z" fill="#40D1E7" /><path d="M480 608h64v128h-64z" fill="#40D1E7" /></svg>